<?xml version="1.0" encoding="UTF-8" standalone="no"?>
<svg
   xmlns:dc="http://purl.org/dc/elements/1.1/"
   xmlns:cc="http://creativecommons.org/ns#"
   xmlns:rdf="http://www.w3.org/1999/02/22-rdf-syntax-ns#"
   xmlns:svg="http://www.w3.org/2000/svg"
   xmlns="http://www.w3.org/2000/svg"
   xmlns:sodipodi="http://sodipodi.sourceforge.net/DTD/sodipodi-0.dtd"
   xmlns:inkscape="http://www.inkscape.org/namespaces/inkscape"
   version="1.1"
   id="svg2"
   xml:space="preserve"
   width="666.66669"
   height="666.66669"
   viewBox="0 0 666.66669 666.66669"
   sodipodi:docname="4408183.ai"><metadata
     id="metadata8"><rdf:RDF><cc:Work
         rdf:about=""><dc:format>image/svg+xml</dc:format><dc:type
           rdf:resource="http://purl.org/dc/dcmitype/StillImage" /></cc:Work></rdf:RDF></metadata><defs
     id="defs6"><clipPath
       clipPathUnits="userSpaceOnUse"
       id="clipPath18"><path
         d="M 0,500 H 500 V 0 H 0 Z"
         id="path16" /></clipPath><clipPath
       clipPathUnits="userSpaceOnUse"
       id="clipPath30"><path
         d="M 15.3578,452.653 H 489.792 V 25.9023 H 15.3578 Z"
         id="path28" /></clipPath><clipPath
       clipPathUnits="userSpaceOnUse"
       id="clipPath46"><path
         d="M 0,500 H 500 V 0 H 0 Z"
         id="path44" /></clipPath><clipPath
       clipPathUnits="userSpaceOnUse"
       id="clipPath102"><path
         d="M 0,500 H 500 V 0 H 0 Z"
         id="path100" /></clipPath><clipPath
       clipPathUnits="userSpaceOnUse"
       id="clipPath130"><path
         d="M 0,500 H 500 V 0 H 0 Z"
         id="path128" /></clipPath><clipPath
       clipPathUnits="userSpaceOnUse"
       id="clipPath158"><path
         d="M 0,500 H 500 V 0 H 0 Z"
         id="path156" /></clipPath><clipPath
       clipPathUnits="userSpaceOnUse"
       id="clipPath422"><path
         d="M 0,500 H 500 V 0 H 0 Z"
         id="path420" /></clipPath></defs><sodipodi:namedview
     pagecolor="#ffffff"
     bordercolor="#666666"
     borderopacity="1"
     objecttolerance="10"
     gridtolerance="10"
     guidetolerance="10"
     inkscape:pageopacity="0"
     inkscape:pageshadow="2"
     inkscape:window-width="640"
     inkscape:window-height="480"
     id="namedview4" /><g
     id="g10"
     inkscape:groupmode="layer"
     inkscape:label="4408183"
     transform="matrix(1.3333333,0,0,-1.3333333,0,666.66667)"><g
       id="g12"><g
         id="g14"
         clip-path="url(#clipPath18)"><g
           id="g20"
           transform="translate(328.833,441.9385)"><path
             d="m 0,0 c 0,0 -79.342,31.17 -155.222,-12.821 -75.88,-43.992 -112.332,-134.502 -143.777,-206.942 -31.444,-72.44 -10.206,-147.606 49.578,-183.277 59.784,-35.669 98.467,13.379 180.987,13.52 82.521,0.141 105.061,-12.726 172.289,33.764 67.231,46.491 76.548,160.451 20.217,246.536 C 67.741,-23.136 0,0 0,0"
             style="fill:#5ae4a7;fill-opacity:1;fill-rule:nonzero;stroke:none"
             id="path22" /></g><g
           id="g24"><g
             id="g26" /><g
             id="g38"><g
               clip-path="url(#clipPath30)"
               opacity="0.699997"
               id="g36"><g
                 transform="translate(328.833,441.9385)"
                 id="g34"><path
                   d="m 0,0 c 0,0 -79.342,31.17 -155.222,-12.821 -75.88,-43.992 -112.332,-134.502 -143.777,-206.942 -31.444,-72.44 -10.206,-147.606 49.578,-183.277 59.784,-35.669 98.467,13.379 180.987,13.52 82.521,0.141 105.061,-12.726 172.289,33.764 67.231,46.491 76.548,160.451 20.217,246.536 C 67.741,-23.136 0,0 0,0"
                   style="fill:#ffffff;fill-opacity:1;fill-rule:nonzero;stroke:none"
                   id="path32" /></g></g></g></g></g></g><g
       id="g40"><g
         id="g42"
         clip-path="url(#clipPath46)"><g
           id="g48"
           transform="translate(205.2437,102)"><path
             d="m 0,0 h -160.959 v 289.466 c 0,44.448 36.032,80.479 80.48,80.479 C -36.032,369.945 0,333.914 0,289.466 Z"
             style="fill:none;stroke:#1a2e35;stroke-width:1;stroke-linecap:round;stroke-linejoin:round;stroke-miterlimit:10;stroke-dasharray:none;stroke-opacity:1"
             id="path50" /></g><g
           id="g52"
           transform="translate(62.4575,102.8652)"><path
             d="m 0,0 v 286.005 c 0,34.411 27.896,62.307 62.307,62.307 34.41,0 62.306,-27.896 62.306,-62.307 V 0"
             style="fill:none;stroke:#1a2e35;stroke-width:1;stroke-linecap:round;stroke-linejoin:round;stroke-miterlimit:10;stroke-dasharray:none;stroke-opacity:1"
             id="path54" /></g><g
           id="g56"
           transform="translate(124.7642,471.9453)"><path
             d="M 0,0 V -369.513"
             style="fill:none;stroke:#1a2e35;stroke-width:1;stroke-linecap:round;stroke-linejoin:round;stroke-miterlimit:10;stroke-dasharray:none;stroke-opacity:1"
             id="path58" /></g><g
           id="g60"
           transform="translate(45.1499,400.769)"><path
             d="M 0,0 H 159.012"
             style="fill:none;stroke:#1a2e35;stroke-width:1;stroke-linecap:round;stroke-linejoin:round;stroke-miterlimit:10;stroke-dasharray:none;stroke-opacity:1"
             id="path62" /></g><g
           id="g64"
           transform="translate(45.1499,350.5771)"><path
             d="M 0,0 H 159.012"
             style="fill:none;stroke:#1a2e35;stroke-width:1;stroke-linecap:round;stroke-linejoin:round;stroke-miterlimit:10;stroke-dasharray:none;stroke-opacity:1"
             id="path66" /></g><g
           id="g68"
           transform="translate(45.1499,300.3857)"><path
             d="M 0,0 H 159.012"
             style="fill:none;stroke:#1a2e35;stroke-width:1;stroke-linecap:round;stroke-linejoin:round;stroke-miterlimit:10;stroke-dasharray:none;stroke-opacity:1"
             id="path70" /></g><g
           id="g72"
           transform="translate(45.1499,250.1943)"><path
             d="M 0,0 H 159.012"
             style="fill:none;stroke:#1a2e35;stroke-width:1;stroke-linecap:round;stroke-linejoin:round;stroke-miterlimit:10;stroke-dasharray:none;stroke-opacity:1"
             id="path74" /></g><g
           id="g76"
           transform="translate(45.1499,200.0029)"><path
             d="M 0,0 H 159.012"
             style="fill:none;stroke:#1a2e35;stroke-width:1;stroke-linecap:round;stroke-linejoin:round;stroke-miterlimit:10;stroke-dasharray:none;stroke-opacity:1"
             id="path78" /></g><g
           id="g80"
           transform="translate(45.1499,149.8115)"><path
             d="M 0,0 H 159.012"
             style="fill:none;stroke:#1a2e35;stroke-width:1;stroke-linecap:round;stroke-linejoin:round;stroke-miterlimit:10;stroke-dasharray:none;stroke-opacity:1"
             id="path82" /></g><g
           id="g84"
           transform="translate(66.4116,446.8286)"><path
             d="M 0,0 14.42,-13.13"
             style="fill:none;stroke:#1a2e35;stroke-width:1;stroke-linecap:round;stroke-linejoin:round;stroke-miterlimit:10;stroke-dasharray:none;stroke-opacity:1"
             id="path86" /></g><g
           id="g88"
           transform="translate(182.5122,446.8286)"><path
             d="M 0,0 -14.42,-13.13"
             style="fill:none;stroke:#1a2e35;stroke-width:1;stroke-linecap:round;stroke-linejoin:round;stroke-miterlimit:10;stroke-dasharray:none;stroke-opacity:1"
             id="path90" /></g></g></g><path
       d="M 461.021,242.648 H 302 v 216.603 h 159.021 z"
       style="fill:none;stroke:#1a2e35;stroke-width:1;stroke-linecap:round;stroke-linejoin:round;stroke-miterlimit:10;stroke-dasharray:none;stroke-opacity:1"
       id="path92" /><path
       d="M 450.248,251.774 H 312.773 v 198.353 h 137.475 z"
       style="fill:none;stroke:#1a2e35;stroke-width:1;stroke-linecap:round;stroke-linejoin:round;stroke-miterlimit:10;stroke-dasharray:none;stroke-opacity:1"
       id="path94" /><g
       id="g96"><g
         id="g98"
         clip-path="url(#clipPath102)"><g
           id="g104"
           transform="translate(450.248,438.0508)"><path
             d="m 0,0 c -2.247,0.555 -26.362,6.167 -31.808,-6.902 -5.713,-13.712 31.994,-49.133 11.426,-77.7 -20.567,-28.565 -78.842,14.855 -87.982,-7.998 -9.142,-22.853 -7.999,-53.704 -23.995,-59.417 -1.677,-0.598 -3.391,-1.039 -5.116,-1.361 v -32.899 H 0 Z"
             style="fill:none;stroke:#1a2e35;stroke-width:1;stroke-linecap:butt;stroke-linejoin:miter;stroke-miterlimit:10;stroke-dasharray:none;stroke-opacity:1"
             id="path106" /></g><g
           id="g108"
           transform="translate(346.8105,450.1265)"><path
             d="M 0,0 C 10.351,-5.694 18.003,-13.924 9.928,-24.691 -7.212,-47.543 -32.351,-61.255 -16.354,-73.824 -0.356,-86.393 41.921,-76.11 36.208,-40.688 33.049,-21.101 33.04,-8.509 35.977,0 Z"
             style="fill:none;stroke:#1a2e35;stroke-width:1;stroke-linecap:butt;stroke-linejoin:miter;stroke-miterlimit:10;stroke-dasharray:none;stroke-opacity:1"
             id="path110" /></g><g
           id="g112"
           transform="translate(396.7305,303.7446)"><path
             d="m 0,0 c 0,-11.674 -9.465,-21.139 -21.139,-21.139 -11.674,0 -21.139,9.465 -21.139,21.139 0,11.675 9.465,21.139 21.139,21.139 C -9.465,21.139 0,11.675 0,0 Z"
             style="fill:none;stroke:#1a2e35;stroke-width:1;stroke-linecap:butt;stroke-linejoin:miter;stroke-miterlimit:10;stroke-dasharray:none;stroke-opacity:1"
             id="path114" /></g><g
           id="g116"
           transform="translate(442.4355,323.1694)"><path
             d="m 0,0 c 0,-4.733 -3.837,-8.57 -8.569,-8.57 -4.734,0 -8.571,3.837 -8.571,8.57 0,4.733 3.837,8.57 8.571,8.57 C -3.837,8.57 0,4.733 0,0 Z"
             style="fill:none;stroke:#1a2e35;stroke-width:1;stroke-linecap:butt;stroke-linejoin:miter;stroke-miterlimit:10;stroke-dasharray:none;stroke-opacity:1"
             id="path118" /></g><g
           id="g120"
           transform="translate(359.0234,393.4419)"><path
             d="m 0,0 c 0,-3.787 -3.069,-6.856 -6.856,-6.856 -3.787,0 -6.856,3.069 -6.856,6.856 0,3.786 3.069,6.855 6.856,6.855 C -3.069,6.855 0,3.786 0,0 Z"
             style="fill:none;stroke:#1a2e35;stroke-width:1;stroke-linecap:butt;stroke-linejoin:miter;stroke-miterlimit:10;stroke-dasharray:none;stroke-opacity:1"
             id="path122" /></g></g></g><g
       id="g124"><g
         id="g126"
         clip-path="url(#clipPath130)"><g
           id="g132"
           transform="translate(433.1055,86.4814)"><path
             d="M 0,0 C 2.154,1.504 4.246,3.079 6.28,4.72 3.839,3.561 1.496,1.679 0,0"
             style="fill:#1a2e35;fill-opacity:1;fill-rule:nonzero;stroke:none"
             id="path134" /></g><g
           id="g136"
           transform="translate(452.8564,112.2979)"><path
             d="m 0,0 c -3.892,2.007 -10.868,-1.692 -13.64,-4.451 -0.173,-0.172 -1.938,-2.374 -2.884,-3.603 0.231,1.479 0.471,2.954 0.657,4.458 0.539,4.341 0.949,8.752 1.379,13.151 0.13,1.347 0.276,2.688 0.418,4.032 0.56,-0.212 7.224,-2.692 10.502,-2.462 2.914,0.204 6.567,1.274 8.254,3.865 1.651,2.535 1.062,6.066 -1.742,7.511 -3.89,2.008 -10.867,-1.692 -13.638,-4.45 -0.209,-0.208 -2.745,-3.381 -3.351,-4.219 0.313,2.957 0.651,5.901 1.104,8.791 0.618,3.987 1.444,7.865 2.523,11.563 0.261,-0.099 7.205,-2.719 10.562,-2.484 2.913,0.204 6.567,1.275 8.253,3.865 1.652,2.537 1.063,6.066 -1.741,7.512 -3.891,2.007 -10.868,-1.692 -13.638,-4.45 -0.182,-0.182 -2.117,-2.596 -3.01,-3.767 -0.123,0.064 -0.101,0.052 -0.223,0.116 1.203,3.947 2.866,7.619 4.593,10.979 0.996,1.948 2.057,3.755 3.129,5.489 1.242,-0.62 6.955,-3.394 10,-3.515 2.918,-0.118 6.667,0.546 8.628,2.934 1.921,2.34 1.722,5.913 -0.906,7.657 C 11.582,60.945 4.241,58.034 1.185,55.598 1.019,55.465 -0.522,53.931 -1.63,52.797 c 0.496,0.775 0.993,1.585 1.483,2.318 1.832,2.759 3.678,5.171 5.332,7.295 0.95,1.2 1.832,2.267 2.669,3.256 1.538,0.027 7.732,0.216 10.441,1.486 2.643,1.242 5.666,3.558 6.306,6.581 0.625,2.962 -1.197,6.042 -4.333,6.379 C 15.914,80.581 10.741,74.615 9.15,71.044 9.014,70.735 7.418,65.66 7.499,65.661 c 0,0 0.074,0.001 0.093,0.001 -0.824,-0.935 -1.696,-1.948 -2.628,-3.073 -1.702,-2.092 -3.608,-4.472 -5.506,-7.2 -1.905,-2.723 -3.897,-5.735 -5.71,-9.096 -1.82,-3.367 -3.564,-7.002 -4.877,-10.98 -0.015,-0.044 -0.024,-0.093 -0.039,-0.138 0.022,1.283 -0.034,4.871 -0.07,5.145 -0.502,3.878 -3.753,11.075 -8.058,11.871 -3.102,0.573 -5.729,-1.857 -5.976,-4.874 -0.252,-3.08 1.981,-6.164 4.159,-8.109 2.456,-2.193 9.274,-4.318 9.817,-4.486 -1.215,-3.799 -2.153,-7.797 -2.88,-11.895 -0.419,-2.342 -0.766,-4.715 -1.086,-7.098 -0.015,1.11 -0.039,2.102 -0.056,2.241 -0.503,3.878 -3.753,11.074 -8.059,11.87 -3.102,0.573 -5.728,-1.858 -5.976,-4.874 -0.252,-3.08 1.981,-6.163 4.16,-8.11 2.21,-1.973 7.986,-3.902 9.521,-4.391 -0.112,-0.915 -0.235,-1.828 -0.345,-2.744 -0.525,-4.394 -1.03,-8.782 -1.657,-13.07 -0.221,-1.511 -0.493,-2.991 -0.76,-4.473 -0.016,0.985 -0.037,1.815 -0.053,1.941 -0.502,3.878 -3.752,11.074 -8.059,11.87 -3.101,0.574 -5.728,-1.856 -5.975,-4.873 -0.252,-3.08 1.981,-6.164 4.159,-8.109 2.109,-1.884 7.425,-3.712 9.247,-4.303 -0.321,-1.509 -0.637,-3.02 -1.015,-4.469 -0.281,-0.983 -0.482,-1.949 -0.818,-2.921 -0.313,-0.969 -0.622,-1.928 -0.929,-2.877 -0.658,-1.809 -1.325,-3.678 -2.012,-5.426 -0.298,-0.776 -0.595,-1.524 -0.893,-2.266 1.126,0.756 2.264,1.529 3.417,2.32 0.544,1.523 1.066,3.063 1.621,4.706 0.286,0.957 0.575,1.923 0.866,2.898 0.311,0.961 0.517,2.017 0.781,3.033 0.564,2.369 1.021,4.799 1.426,7.256 1.583,-0.576 7.233,-2.541 10.158,-2.335 1.498,0.105 3.19,0.445 4.711,1.098 1.497,1.588 2.957,3.211 4.368,4.881 C 2.933,-3.289 2.078,-1.072 0,0"
             style="fill:#1a2e35;fill-opacity:1;fill-rule:nonzero;stroke:none"
             id="path138" /></g><g
           id="g140"
           transform="translate(428.208,86.4756)"><path
             d="m 0,0 c 0.06,2.597 -0.862,6.819 -2.698,9.787 0.01,0.384 -0.011,0.767 -0.073,1.147 -0.479,2.987 -3.287,5.207 -6.334,4.395 -4.232,-1.127 -6.916,-8.554 -7.116,-12.458 -0.012,-0.23 0.139,-2.744 0.26,-4.328 -0.213,0.92 -0.409,1.816 -0.64,2.761 -0.443,1.871 -0.941,3.725 -1.469,5.723 -0.289,0.955 -0.581,1.92 -0.876,2.895 -0.272,0.973 -0.683,1.966 -1.023,2.96 -0.837,2.288 -1.796,4.566 -2.813,6.84 1.637,0.392 7.433,1.869 9.761,3.655 2.316,1.777 4.774,4.686 4.751,7.777 -0.021,3.027 -2.459,5.646 -5.595,5.305 -4.354,-0.473 -8.131,-7.407 -8.921,-11.236 -0.049,-0.24 -0.307,-3.05 -0.419,-4.598 -0.622,1.362 -1.236,2.725 -1.91,4.082 -1.947,3.918 -4.037,7.823 -6.106,11.729 -0.634,1.196 -1.252,2.395 -1.876,3.593 0.585,0.133 7.512,1.741 10.118,3.741 2.317,1.777 4.775,4.686 4.752,7.777 -0.021,3.026 -2.46,5.645 -5.595,5.305 -4.354,-0.473 -8.131,-7.408 -8.921,-11.237 -0.06,-0.289 -0.425,-4.334 -0.468,-5.368 -1.37,2.64 -2.712,5.282 -3.93,7.941 -1.683,3.667 -3.133,7.358 -4.273,11.038 0.272,0.061 7.51,1.706 10.18,3.754 2.317,1.778 4.774,4.686 4.752,7.777 -0.022,3.026 -2.46,5.645 -5.597,5.305 -4.353,-0.473 -8.13,-7.407 -8.92,-11.236 -0.053,-0.252 -0.334,-3.336 -0.434,-4.805 -0.136,-0.014 -0.111,-0.011 -0.248,-0.026 -1.173,3.957 -1.812,7.938 -2.226,11.693 -0.244,2.175 -0.357,4.267 -0.419,6.305 1.379,0.168 7.674,1.006 10.28,2.584 2.498,1.513 5.26,4.134 5.578,7.208 0.311,3.011 -1.826,5.882 -4.98,5.888 -4.378,0.008 -8.895,-6.47 -10.101,-10.189 -0.065,-0.202 -0.504,-2.332 -0.803,-3.887 -0.013,0.92 -0.045,1.869 -0.042,2.751 0.006,3.311 0.216,6.342 0.423,9.026 0.13,1.524 0.279,2.9 0.43,4.188 1.268,0.871 6.331,4.445 7.89,7 1.519,2.494 2.762,6.092 1.628,8.967 -1.112,2.815 -4.331,4.379 -7.133,2.931 -3.89,-2.011 -4.912,-9.841 -4.27,-13.697 0.057,-0.334 1.526,-5.447 1.592,-5.402 0,0 0.063,0.042 0.077,0.053 -0.172,-1.234 -0.341,-2.56 -0.496,-4.013 -0.267,-2.684 -0.543,-5.719 -0.62,-9.044 -0.087,-3.321 -0.088,-6.932 0.255,-10.735 0.339,-3.813 0.889,-7.807 1.989,-11.849 0.013,-0.045 0.031,-0.09 0.044,-0.136 -0.688,1.082 -2.716,4.043 -2.897,4.253 -2.558,2.957 -9.24,7.166 -13.27,5.455 -2.903,-1.234 -3.754,-4.709 -2.296,-7.362 1.489,-2.709 5.053,-4.048 7.943,-4.469 3.259,-0.475 10.118,1.514 10.663,1.674 1.083,-3.839 2.505,-7.691 4.16,-11.509 0.943,-2.185 1.961,-4.356 3.01,-6.52 -0.625,0.917 -1.192,1.732 -1.284,1.837 -2.558,2.957 -9.239,7.166 -13.269,5.455 -2.904,-1.233 -3.754,-4.709 -2.296,-7.361 1.488,-2.709 5.054,-4.048 7.943,-4.47 2.932,-0.427 8.814,1.151 10.365,1.59 0.411,-0.825 0.811,-1.655 1.225,-2.479 1.986,-3.955 3.986,-7.892 5.828,-11.815 0.651,-1.382 1.239,-2.767 1.834,-4.15 -0.556,0.813 -1.032,1.494 -1.115,1.589 -2.558,2.957 -9.239,7.167 -13.27,5.456 -2.903,-1.233 -3.753,-4.709 -2.295,-7.362 1.489,-2.708 5.052,-4.048 7.943,-4.469 2.798,-0.408 8.239,1 10.085,1.512 0.565,-1.434 1.136,-2.871 1.62,-4.287 0.309,-0.975 0.673,-1.892 0.929,-2.888 0.273,-0.98 0.544,-1.951 0.812,-2.913 0.449,-1.871 0.924,-3.798 1.316,-5.634 0.282,-1.275 0.528,-2.496 0.778,-3.723 -0.63,1.383 -1.923,4.064 -2.056,4.276 -2.081,3.311 -8.047,8.484 -12.29,7.403 -3.056,-0.78 -4.425,-4.086 -3.385,-6.929 1.062,-2.903 4.382,-4.767 7.174,-5.621 3.076,-0.94 9.883,-0.081 10.733,0.032 0.407,-2.034 0.785,-4.017 1.111,-5.893 0.237,-1.343 0.448,-2.622 0.649,-3.87 0.812,0.475 1.632,0.963 2.458,1.458 -0.176,0.939 -0.36,1.9 -0.557,2.889 -0.405,2.067 -0.881,4.268 -1.39,6.523 0.512,0.204 3.415,1.377 5.988,2.816 1.702,-1.844 5.419,-3.923 7.437,-4.976 0.583,0.386 1.173,0.78 1.763,1.175 C -0.264,-2.137 -0.005,-0.201 0,0"
             style="fill:#1a2e35;fill-opacity:1;fill-rule:nonzero;stroke:none"
             id="path142" /></g><g
           id="g144"
           transform="translate(372.4502,166.251)"><path
             d="M 0,0 C 3.142,-1.373 10.827,-1.2 10.833,-1.199 10.913,-1.197 9.182,3.832 9.036,4.137 7.349,7.664 2.017,13.488 -2.322,12.902 -5.448,12.479 -7.187,9.351 -6.48,6.408 -5.76,3.402 -2.677,1.17 0,0"
             style="fill:#1a2e35;fill-opacity:1;fill-rule:nonzero;stroke:none"
             id="path146" /></g><g
           id="g148"
           transform="translate(439.9414,180.457)"><path
             d="m 0,0 c -1.057,-2.904 0.283,-6.469 1.87,-8.92 1.863,-2.878 8.369,-6.974 8.374,-6.976 0.068,-0.043 1.398,5.107 1.444,5.442 C 12.228,-6.582 10.993,1.217 7.051,3.122 4.211,4.494 1.035,2.844 0,0"
             style="fill:#1a2e35;fill-opacity:1;fill-rule:nonzero;stroke:none"
             id="path150" /></g></g></g><g
       id="g152"><g
         id="g154"
         clip-path="url(#clipPath158)"><g
           id="g160"
           transform="translate(325.0742,404.4717)"><path
             d="m 0,0 -48.79,-1.29 -0.965,-17.116 46.818,-8.054 c 0,0 0.121,16.025 4.434,26.087"
             style="fill:#ffffff;fill-opacity:1;fill-rule:nonzero;stroke:#1a2e35;stroke-width:1;stroke-linecap:butt;stroke-linejoin:miter;stroke-miterlimit:10;stroke-dasharray:none;stroke-opacity:1"
             id="path162" /></g><g
           id="g164"
           transform="translate(342.9512,405.2168)"><path
             d="m 0,0 c 0,0 1.443,2.981 -1.922,3.727 -3.366,0.745 -15.652,0 -17.516,0 -1.864,0 -7.732,-5.963 -8.673,-17.143 -0.942,-11.18 -0.103,-17.143 2.151,-18.261 2.254,-1.118 17.51,0.372 17.51,0.372 0,0 3.137,13.789 6.017,20.125 C 0.449,-4.845 0,0 0,0"
             style="fill:#ffffff;fill-opacity:1;fill-rule:nonzero;stroke:none"
             id="path166" /></g><g
           id="g168"
           transform="translate(342.9512,405.2168)"><path
             d="m 0,0 c 0,0 1.443,2.981 -1.922,3.727 -3.366,0.745 -15.652,0 -17.516,0 -1.864,0 -7.732,-5.963 -8.673,-17.143 -0.942,-11.18 -0.103,-17.143 2.151,-18.261 2.254,-1.118 17.51,0.372 17.51,0.372 0,0 3.137,13.789 6.017,20.125 C 0.449,-4.845 0,0 0,0 Z"
             style="fill:none;stroke:#1a2e35;stroke-width:1;stroke-linecap:butt;stroke-linejoin:miter;stroke-miterlimit:10;stroke-dasharray:none;stroke-opacity:1"
             id="path170" /></g><g
           id="g172"
           transform="translate(299.4502,51.6621)"><path
             d="M 0,0 C 3.136,22.284 6.755,50.381 6.598,60.354 6.321,77.827 5.818,80.586 5.818,80.586 h -132.885 l -1.329,-3.219 c 0,0 -3.279,-25.29 -0.078,-53.338 1.681,-14.725 3.084,-29.063 4.039,-39.369 16.957,5.239 35.38,11.095 56.957,14.091 l 0.702,49.188 5.452,4.138 2.543,-52.302 c 6.3,0.614 12.86,0.97 19.73,0.982 C -24.318,0.782 -11.505,0.393 0,0"
             style="fill:#1a2e35;fill-opacity:1;fill-rule:nonzero;stroke:none"
             id="path174" /></g><g
           id="g176"
           transform="translate(299.4502,51.6621)"><path
             d="M 0,0 C 3.136,22.284 6.755,50.381 6.598,60.354 6.321,77.827 5.818,80.586 5.818,80.586 h -132.885 l -1.329,-3.219 c 0,0 -3.279,-25.29 -0.078,-53.338 1.681,-14.725 3.084,-29.063 4.039,-39.369 16.957,5.239 35.38,11.095 56.957,14.091 l 0.702,49.188 5.452,4.138 2.543,-52.302 c 6.3,0.614 12.86,0.97 19.73,0.982 C -24.318,0.782 -11.505,0.393 0,0 Z"
             style="fill:none;stroke:#1a2e35;stroke-width:1;stroke-linecap:butt;stroke-linejoin:miter;stroke-miterlimit:10;stroke-dasharray:none;stroke-opacity:1"
             id="path178" /></g><g
           id="g180"
           transform="translate(204.5986,305.1372)"><path
             d="m 0,0 h 73.11 l 8.364,-180.247 c 0,0 -10.518,-3.677 -26.159,-3.218 -15.641,0.46 -18.479,5.518 -33.128,1.38 -14.648,-4.139 -15.518,-7.358 -26.129,-5.058 l -10.612,2.299 z"
             style="fill:#ffffff;fill-opacity:1;fill-rule:nonzero;stroke:none"
             id="path182" /></g><g
           id="g184"
           transform="translate(204.5986,305.1372)"><path
             d="m 0,0 h 73.11 l 8.364,-180.247 c 0,0 -10.518,-3.677 -26.159,-3.218 -15.641,0.46 -18.479,5.518 -33.128,1.38 -14.648,-4.139 -15.518,-7.358 -26.129,-5.058 l -10.612,2.299 z"
             style="fill:none;stroke:#1a2e35;stroke-width:1;stroke-linecap:butt;stroke-linejoin:miter;stroke-miterlimit:10;stroke-dasharray:none;stroke-opacity:1"
             id="path186" /></g><g
           id="g188"
           transform="translate(241.7642,172.5967)"><path
             d="M 0,0 C -0.717,-2.124 -1.281,-3.89 -1.628,-5.138"
             style="fill:none;stroke:#1a2e35;stroke-width:1;stroke-linecap:round;stroke-linejoin:miter;stroke-miterlimit:10;stroke-dasharray:none;stroke-opacity:1"
             id="path190" /></g><g
           id="g192"
           transform="translate(257.5752,215.4316)"><path
             d="M 0,0 C 0,0 -8.5,-22.125 -13.763,-36.941"
             style="fill:none;stroke:#1a2e35;stroke-width:1;stroke-linecap:round;stroke-linejoin:miter;stroke-miterlimit:10;stroke-dasharray:none;stroke-opacity:1"
             id="path194" /></g><g
           id="g196"
           transform="translate(237.8208,193.7861)"><path
             d="M 0,0 -1.893,-4.271"
             style="fill:none;stroke:#1a2e35;stroke-width:1;stroke-linecap:round;stroke-linejoin:miter;stroke-miterlimit:10;stroke-dasharray:none;stroke-opacity:1"
             id="path198" /></g><g
           id="g200"
           transform="translate(250.8364,223.1523)"><path
             d="M 0,0 -9.558,-21.563"
             style="fill:none;stroke:#1a2e35;stroke-width:1;stroke-linecap:round;stroke-linejoin:miter;stroke-miterlimit:10;stroke-dasharray:none;stroke-opacity:1"
             id="path202" /></g><g
           id="g204"
           transform="translate(257.5635,290.0601)"><path
             d="M 0,0 0.91,-81.243 0.854,-195.655 c 0,0 19.005,0 30.511,2.982 11.506,2.981 25.793,18.633 25.793,18.633 0,0 -15.567,89.07 -16.135,101.369 -0.566,12.297 3.994,77.516 3.994,77.516 0,0 65.325,76.94 69.496,83.107 6.555,9.689 8.296,17.515 6.74,21.615 -1.556,4.099 -35.889,7.08 -39.598,5.963 -3.709,-1.118 -9.26,-27.206 -9.26,-27.206 0,0 -23.563,-18.261 -32.058,-23.106 C 31.842,60.374 26.66,58.138 15.923,53.666 5.186,49.193 -3.262,41.367 -3.262,41.367 Z"
             style="fill:#5ae4a7;fill-opacity:1;fill-rule:nonzero;stroke:none"
             id="path206" /></g><g
           id="g208"
           transform="translate(257.5635,290.0601)"><path
             d="M 0,0 0.91,-81.243 0.854,-195.655 c 0,0 19.005,0 30.511,2.982 11.506,2.981 25.793,18.633 25.793,18.633 0,0 -15.567,89.07 -16.135,101.369 -0.566,12.297 3.994,77.516 3.994,77.516 0,0 65.325,76.94 69.496,83.107 6.555,9.689 8.296,17.515 6.74,21.615 -1.556,4.099 -35.889,7.08 -39.598,5.963 -3.709,-1.118 -9.26,-27.206 -9.26,-27.206 0,0 -23.563,-18.261 -32.058,-23.106 C 31.842,60.374 26.66,58.138 15.923,53.666 5.186,49.193 -3.262,41.367 -3.262,41.367 Z"
             style="fill:none;stroke:#1a2e35;stroke-width:1;stroke-linecap:butt;stroke-linejoin:miter;stroke-miterlimit:10;stroke-dasharray:none;stroke-opacity:1"
             id="path210" /></g><g
           id="g212"
           transform="translate(289.5625,308.3882)"><path
             d="M 0,0 C 0.036,-2.339 0.11,-4.506 0.235,-6.402"
             style="fill:none;stroke:#1a2e35;stroke-width:1;stroke-linecap:butt;stroke-linejoin:miter;stroke-miterlimit:10;stroke-dasharray:none;stroke-opacity:1"
             id="path214" /></g><g
           id="g216"
           transform="translate(290.9258,348.5703)"><path
             d="M 0,0 C 0,0 -1.313,-19.725 -1.385,-35.37"
             style="fill:none;stroke:#1a2e35;stroke-width:1;stroke-linecap:butt;stroke-linejoin:miter;stroke-miterlimit:10;stroke-dasharray:none;stroke-opacity:1"
             id="path218" /></g><g
           id="g220"
           transform="translate(295.3564,351.1792)"><path
             d="M 0,0 C 0,0 -2.705,-17.516 -3.309,-26.46"
             style="fill:none;stroke:#1a2e35;stroke-width:1;stroke-linecap:butt;stroke-linejoin:miter;stroke-miterlimit:10;stroke-dasharray:none;stroke-opacity:1"
             id="path222" /></g><g
           id="g224"
           transform="translate(329.958,378.3843)"><path
             d="M 0,0 C 0,0 12.587,9.859 15.614,10.365"
             style="fill:none;stroke:#1a2e35;stroke-width:1;stroke-linecap:butt;stroke-linejoin:miter;stroke-miterlimit:10;stroke-dasharray:none;stroke-opacity:1"
             id="path226" /></g><g
           id="g228"
           transform="translate(222.8691,292.2964)"><path
             d="m 0,0 -3.623,-100.995 -5.498,-100.25 c 0,0 -14.96,3.354 -29.588,9.317 -14.629,5.963 -22.555,12.299 -22.555,12.299 0,0 5.824,32.422 9.64,50.31 3.818,17.889 8.825,54.784 8.731,60.746 -0.094,5.963 -0.873,31.678 -3.327,45.467 -2.453,13.789 -13.537,31.305 -13.567,33.168 -0.029,1.864 38.488,17.143 45.51,20.87 7.022,3.727 12.6,4.472 12.6,4.472 l 1.875,-0.745 z"
             style="fill:#5ae4a7;fill-opacity:1;fill-rule:nonzero;stroke:none"
             id="path230" /></g><g
           id="g232"
           transform="translate(222.8691,292.2964)"><path
             d="m 0,0 -3.623,-100.995 -5.498,-100.25 c 0,0 -14.96,3.354 -29.588,9.317 -14.629,5.963 -22.555,12.299 -22.555,12.299 0,0 5.824,32.422 9.64,50.31 3.818,17.889 8.825,54.784 8.731,60.746 -0.094,5.963 -0.873,31.678 -3.327,45.467 -2.453,13.789 -13.537,31.305 -13.567,33.168 -0.029,1.864 38.488,17.143 45.51,20.87 7.022,3.727 12.6,4.472 12.6,4.472 l 1.875,-0.745 z"
             style="fill:none;stroke:#1a2e35;stroke-width:1;stroke-linecap:butt;stroke-linejoin:miter;stroke-miterlimit:10;stroke-dasharray:none;stroke-opacity:1"
             id="path234" /></g><g
           id="g236"
           transform="translate(222.2397,332.1729)"><path
             d="m 0,0 c 0,0 -7.028,-3.354 -8.413,-10.063 -1.385,-6.708 -6.196,-32.422 -6.51,-36.149 -0.314,-3.727 1.153,-2.236 4.082,1.118 2.928,3.354 6.194,8.944 7.708,7.453 1.515,-1.49 7.193,-7.08 7.193,-7.08 h 27.578 c 0,0 2.224,0.745 3.686,2.608 1.461,1.864 3.999,6.336 5.513,4.845 1.514,-1.49 5.394,-11.18 6.477,-8.944 1.083,2.236 -4.197,29.814 -5.823,38.386 C 39.865,0.745 25.248,5.962 0,0"
             style="fill:#ffffff;fill-opacity:1;fill-rule:nonzero;stroke:none"
             id="path238" /></g><g
           id="g240"
           transform="translate(222.2397,332.1729)"><path
             d="m 0,0 c 0,0 -7.028,-3.354 -8.413,-10.063 -1.385,-6.708 -6.196,-32.422 -6.51,-36.149 -0.314,-3.727 1.153,-2.236 4.082,1.118 2.928,3.354 6.194,8.944 7.708,7.453 1.515,-1.49 7.193,-7.08 7.193,-7.08 h 27.578 c 0,0 2.224,0.745 3.686,2.608 1.461,1.864 3.999,6.336 5.513,4.845 1.514,-1.49 5.394,-11.18 6.477,-8.944 1.083,2.236 -4.197,29.814 -5.823,38.386 C 39.865,0.745 25.248,5.962 0,0 Z"
             style="fill:none;stroke:#1a2e35;stroke-width:1;stroke-linecap:butt;stroke-linejoin:miter;stroke-miterlimit:10;stroke-dasharray:none;stroke-opacity:1"
             id="path242" /></g><g
           id="g244"
           transform="translate(223.1201,323.6011)"><path
             d="m 0,0 c 0,0 -1.328,-33.914 1.76,-40.622 3.087,-6.708 11.386,-13.043 19.171,-10.435 7.785,2.609 13.304,7.081 13.548,15.28 0.243,8.199 -2.062,36.15 -2.062,36.15 z"
             style="fill:#ffffff;fill-opacity:1;fill-rule:nonzero;stroke:none"
             id="path246" /></g><g
           id="g248"
           transform="translate(223.1201,323.6011)"><path
             d="m 0,0 c 0,0 -1.328,-33.914 1.76,-40.622 3.087,-6.708 11.386,-13.043 19.171,-10.435 7.785,2.609 13.304,7.081 13.548,15.28 0.243,8.199 -2.062,36.15 -2.062,36.15 z"
             style="fill:none;stroke:#1a2e35;stroke-width:1;stroke-linecap:butt;stroke-linejoin:miter;stroke-miterlimit:10;stroke-dasharray:none;stroke-opacity:1"
             id="path250" /></g><g
           id="g252"
           transform="translate(257.5986,287.8242)"><path
             d="m 0,0 c 0.243,8.199 -2.062,36.149 -2.062,36.149 l -32.417,-0.372 c 0,0 -0.477,-12.228 -0.191,-23.452 3.248,0.338 9.459,1.459 14.987,5.184 7.916,5.333 11.822,11.333 11.822,11.333 l 7.363,-32.39 C -0.217,-2.447 -0.038,-1.274 0,0"
             style="fill:#1a2e35;fill-opacity:1;fill-rule:nonzero;stroke:none"
             id="path254" /></g><g
           id="g256"
           transform="translate(257.5986,287.8242)"><path
             d="m 0,0 c 0.243,8.199 -2.062,36.149 -2.062,36.149 l -32.417,-0.372 c 0,0 -0.477,-12.228 -0.191,-23.452 3.248,0.338 9.459,1.459 14.987,5.184 7.916,5.333 11.822,11.333 11.822,11.333 l 7.363,-32.39 C -0.217,-2.447 -0.038,-1.274 0,0 Z"
             style="fill:none;stroke:#1a2e35;stroke-width:1;stroke-linecap:butt;stroke-linejoin:miter;stroke-miterlimit:10;stroke-dasharray:none;stroke-opacity:1"
             id="path258" /></g><g
           id="g260"
           transform="translate(201.1592,378.1758)"><path
             d="m 0,0 c 0,0 -2.822,4.135 -5.481,-2.067 -2.659,-6.204 2.647,-14.818 5.091,-16.886 2.445,-2.068 9.036,-4.824 8.987,-1.723 C 8.548,-17.575 5.924,-4.135 3.78,0.689 1.636,5.514 0,0 0,0"
             style="fill:#ffffff;fill-opacity:1;fill-rule:nonzero;stroke:none"
             id="path262" /></g><g
           id="g264"
           transform="translate(201.1592,378.1758)"><path
             d="m 0,0 c 0,0 -2.822,4.135 -5.481,-2.067 -2.659,-6.204 2.647,-14.818 5.091,-16.886 2.445,-2.068 9.036,-4.824 8.987,-1.723 C 8.548,-17.575 5.924,-4.135 3.78,0.689 1.636,5.514 0,0 0,0 Z"
             style="fill:none;stroke:#1a2e35;stroke-width:1;stroke-linecap:butt;stroke-linejoin:miter;stroke-miterlimit:10;stroke-dasharray:none;stroke-opacity:1"
             id="path266" /></g><g
           id="g268"
           transform="translate(279.4004,377.1421)"><path
             d="M 0,0 C 0,0 2.691,4.135 5.546,-2.068 8.4,-8.271 3.368,-16.886 0.988,-18.953 c -2.38,-2.068 -8.884,-4.825 -8.932,-1.723 -0.049,3.101 2.151,16.541 4.142,21.365 C -1.811,5.514 0,0 0,0"
             style="fill:#ffffff;fill-opacity:1;fill-rule:nonzero;stroke:none"
             id="path270" /></g><g
           id="g272"
           transform="translate(279.4004,377.1421)"><path
             d="M 0,0 C 0,0 2.691,4.135 5.546,-2.068 8.4,-8.271 3.368,-16.886 0.988,-18.953 c -2.38,-2.068 -8.884,-4.825 -8.932,-1.723 -0.049,3.101 2.151,16.541 4.142,21.365 C -1.811,5.514 0,0 0,0 Z"
             style="fill:none;stroke:#1a2e35;stroke-width:1;stroke-linecap:butt;stroke-linejoin:miter;stroke-miterlimit:10;stroke-dasharray:none;stroke-opacity:1"
             id="path274" /></g><g
           id="g276"
           transform="translate(205.8677,363.7026)"><path
             d="m 0,0 c 0,0 3.045,-18.264 5.243,-26.535 2.198,-8.27 21.106,-27.223 28.004,-27.568 6.897,-0.344 24.987,10.683 29.288,22.055 4.299,11.372 5.389,29.636 5.374,30.67 -0.017,1.033 2.348,25.845 -4.341,34.804 -6.689,8.96 -34.58,7.581 -48.25,0.345 C 1.648,26.534 -5.758,15.507 0,0"
             style="fill:#ffffff;fill-opacity:1;fill-rule:nonzero;stroke:none"
             id="path278" /></g><g
           id="g280"
           transform="translate(205.8677,363.7026)"><path
             d="m 0,0 c 0,0 3.045,-18.264 5.243,-26.535 2.198,-8.27 21.106,-27.223 28.004,-27.568 6.897,-0.344 24.987,10.683 29.288,22.055 4.299,11.372 5.389,29.636 5.374,30.67 -0.017,1.033 2.348,25.845 -4.341,34.804 -6.689,8.96 -34.58,7.581 -48.25,0.345 C 1.648,26.534 -5.758,15.507 0,0 Z"
             style="fill:none;stroke:#1a2e35;stroke-width:1;stroke-linecap:butt;stroke-linejoin:miter;stroke-miterlimit:10;stroke-dasharray:none;stroke-opacity:1"
             id="path282" /></g><g
           id="g284"
           transform="translate(229.5483,348.0229)"><path
             d="m 0,0 c 0.034,-2.188 -0.94,-3.963 -2.178,-3.963 -1.237,0 -2.267,1.775 -2.302,3.963 -0.035,2.189 0.94,3.963 2.177,3.963 C -1.065,3.963 -0.035,2.189 0,0"
             style="fill:#1a2e35;fill-opacity:1;fill-rule:nonzero;stroke:none"
             id="path286" /></g><g
           id="g288"
           transform="translate(256.082,348.0229)"><path
             d="m 0,0 c 0.035,-2.188 -0.939,-3.963 -2.177,-3.963 -1.237,0 -2.268,1.775 -2.302,3.963 -0.035,2.189 0.94,3.963 2.177,3.963 C -1.065,3.963 -0.034,2.189 0,0"
             style="fill:#1a2e35;fill-opacity:1;fill-rule:nonzero;stroke:none"
             id="path290" /></g><g
           id="g292"
           transform="translate(231.4116,360.9458)"><path
             d="M 0,0 -12.991,-6.547"
             style="fill:none;stroke:#1a2e35;stroke-width:3;stroke-linecap:round;stroke-linejoin:miter;stroke-miterlimit:10;stroke-dasharray:none;stroke-opacity:1"
             id="path294" /></g><g
           id="g296"
           transform="translate(251.4043,360.6011)"><path
             d="M 0,0 12.87,-7.581"
             style="fill:none;stroke:#1a2e35;stroke-width:3;stroke-linecap:round;stroke-linejoin:miter;stroke-miterlimit:10;stroke-dasharray:none;stroke-opacity:1"
             id="path298" /></g><g
           id="g300"
           transform="translate(245.9067,334.5811)"><path
             d="M 0,0 C 0.037,-2.35 -2.043,-4.254 -4.647,-4.254 -7.25,-4.254 -9.392,-2.35 -9.429,0"
             style="fill:none;stroke:#1a2e35;stroke-width:1;stroke-linecap:round;stroke-linejoin:miter;stroke-miterlimit:10;stroke-dasharray:none;stroke-opacity:1"
             id="path302" /></g><g
           id="g304"
           transform="translate(237.9028,322)"><path
             d="M 0,0 C 0,0 2.977,1.5 6.25,0"
             style="fill:none;stroke:#1a2e35;stroke-width:1;stroke-linecap:round;stroke-linejoin:miter;stroke-miterlimit:10;stroke-dasharray:none;stroke-opacity:1"
             id="path306" /></g><g
           id="g308"
           transform="translate(220.3018,344.25)"><path
             d="M 0,0 5.266,-1"
             style="fill:none;stroke:#1a2e35;stroke-width:1;stroke-linecap:round;stroke-linejoin:miter;stroke-miterlimit:10;stroke-dasharray:none;stroke-opacity:1"
             id="path310" /></g><g
           id="g312"
           transform="translate(262.0518,344.25)"><path
             d="M 0,0 -5.723,-1.75"
             style="fill:none;stroke:#1a2e35;stroke-width:1;stroke-linecap:round;stroke-linejoin:miter;stroke-miterlimit:10;stroke-dasharray:none;stroke-opacity:1"
             id="path314" /></g><g
           id="g316"
           transform="translate(224.1099,430.5552)"><path
             d="m 0,0 c 0,0 -17.789,-8.271 -23.386,-24.811 -5.597,-16.541 1.912,-33.771 3.016,-38.251 1.105,-4.48 1.832,-6.892 1.832,-6.892 0,0 5.077,5.858 8.824,8.615 3.747,2.757 11.306,4.135 15.77,5.169 4.464,1.034 19.91,4.824 23.981,8.96 4.069,4.135 5.421,5.858 5.421,5.858 0,0 3.378,-17.575 7.94,-22.744 4.561,-5.169 5.683,-10.682 5.683,-10.682 0,0 2.992,6.892 5.306,13.094 2.315,6.203 3.931,34.805 -2.463,46.866 C 45.531,-2.757 18.467,8.96 0,0"
             style="fill:#1a2e35;fill-opacity:1;fill-rule:nonzero;stroke:none"
             id="path318" /></g><g
           id="g320"
           transform="translate(224.1099,430.5552)"><path
             d="m 0,0 c 0,0 -17.789,-8.271 -23.386,-24.811 -5.597,-16.541 1.912,-33.771 3.016,-38.251 1.105,-4.48 1.832,-6.892 1.832,-6.892 0,0 5.077,5.858 8.824,8.615 3.747,2.757 11.306,4.135 15.77,5.169 4.464,1.034 19.91,4.824 23.981,8.96 4.069,4.135 5.421,5.858 5.421,5.858 0,0 3.378,-17.575 7.94,-22.744 4.561,-5.169 5.683,-10.682 5.683,-10.682 0,0 2.992,6.892 5.306,13.094 2.315,6.203 3.931,34.805 -2.463,46.866 C 45.531,-2.757 18.467,8.96 0,0 Z"
             style="fill:none;stroke:#1a2e35;stroke-width:1;stroke-linecap:butt;stroke-linejoin:miter;stroke-miterlimit:10;stroke-dasharray:none;stroke-opacity:1"
             id="path322" /></g><g
           id="g324"
           transform="translate(259.5674,389.2031)"><path
             d="m 0,0 c 0,0 -13.895,-14.818 -29.982,-21.71 -16.087,-6.892 -33.029,-25.156 -31.504,-34.46 1.526,-9.305 12.952,-12.75 11.573,-12.75 -1.378,0 -18.313,3.101 -18.186,16.885 0.127,13.784 14.47,22.055 21.997,25.501 C -38.575,-23.088 -6.821,-4.48 0,0"
             style="fill:#1a2e35;fill-opacity:1;fill-rule:nonzero;stroke:none"
             id="path326" /></g><g
           id="g328"
           transform="translate(259.5674,389.2031)"><path
             d="m 0,0 c 0,0 -13.895,-14.818 -29.982,-21.71 -16.087,-6.892 -33.029,-25.156 -31.504,-34.46 1.526,-9.305 12.952,-12.75 11.573,-12.75 -1.378,0 -18.313,3.101 -18.186,16.885 0.127,13.784 14.47,22.055 21.997,25.501 C -38.575,-23.088 -6.821,-4.48 0,0 Z"
             style="fill:none;stroke:#1a2e35;stroke-width:1;stroke-linecap:butt;stroke-linejoin:miter;stroke-miterlimit:10;stroke-dasharray:none;stroke-opacity:1"
             id="path330" /></g><g
           id="g332"
           transform="translate(262.832,378.8652)"><path
             d="m 0,0 c 0,0 4.741,-16.541 7.585,-22.055 2.844,-5.513 7.875,-18.608 4.231,-27.912 -3.643,-9.304 -6.379,-10.683 -6.379,-10.683 0,0 12.27,8.615 12.047,22.744 C 17.261,-23.778 2.22,-9.649 0,0"
             style="fill:#1a2e35;fill-opacity:1;fill-rule:nonzero;stroke:none"
             id="path334" /></g><g
           id="g336"
           transform="translate(262.832,378.8652)"><path
             d="m 0,0 c 0,0 4.741,-16.541 7.585,-22.055 2.844,-5.513 7.875,-18.608 4.231,-27.912 -3.643,-9.304 -6.379,-10.683 -6.379,-10.683 0,0 12.27,8.615 12.047,22.744 C 17.261,-23.778 2.22,-9.649 0,0 Z"
             style="fill:none;stroke:#1a2e35;stroke-width:1;stroke-linecap:butt;stroke-linejoin:miter;stroke-miterlimit:10;stroke-dasharray:none;stroke-opacity:1"
             id="path338" /></g><g
           id="g340"
           transform="translate(260.3643,426.0146)"><path
             d="m 0,0 c 0.149,-9.42 -8.91,-17.058 -20.234,-17.058 -11.324,0 -20.624,7.638 -20.773,17.058 -0.149,9.421 8.91,17.058 20.234,17.058 C -9.449,17.058 -0.148,9.421 0,0"
             style="fill:#1a2e35;fill-opacity:1;fill-rule:nonzero;stroke:none"
             id="path342" /></g><g
           id="g344"
           transform="translate(260.3643,426.0146)"><path
             d="m 0,0 c 0.149,-9.42 -8.91,-17.058 -20.234,-17.058 -11.324,0 -20.624,7.638 -20.773,17.058 -0.149,9.421 8.91,17.058 20.234,17.058 C -9.449,17.058 -0.148,9.421 0,0 Z"
             style="fill:none;stroke:#1a2e35;stroke-width:1;stroke-linecap:butt;stroke-linejoin:miter;stroke-miterlimit:10;stroke-dasharray:none;stroke-opacity:1"
             id="path346" /></g><g
           id="g348"
           transform="translate(252.2129,440.3159)"><path
             d="m 0,0 c 0.087,-5.52 -5.319,-9.994 -12.076,-9.994 -6.756,0 -12.303,4.474 -12.391,9.994 -0.087,5.519 5.32,9.993 12.076,9.993 C -5.635,9.993 -0.087,5.519 0,0"
             style="fill:#1a2e35;fill-opacity:1;fill-rule:nonzero;stroke:none"
             id="path350" /></g><g
           id="g352"
           transform="translate(252.2129,440.3159)"><path
             d="m 0,0 c 0.087,-5.52 -5.319,-9.994 -12.076,-9.994 -6.756,0 -12.303,4.474 -12.391,9.994 -0.087,5.519 5.32,9.993 12.076,9.993 C -5.635,9.993 -0.087,5.519 0,0 Z"
             style="fill:none;stroke:#1a2e35;stroke-width:1;stroke-linecap:butt;stroke-linejoin:miter;stroke-miterlimit:10;stroke-dasharray:none;stroke-opacity:1"
             id="path354" /></g><g
           id="g356"
           transform="translate(138.2739,174.1582)"><path
             d="m 0,0 0.888,-56.274 c 0,0 -4.456,-24.596 -2.191,-26.46 2.266,-1.864 9.825,-8.572 11.345,-10.435 1.521,-1.863 4.514,-2.608 6.756,-2.981 2.242,-0.372 8.548,1.491 7.377,4.844 -1.171,3.355 -2.597,-0.745 -3.733,0.373 -1.135,1.119 -3.046,4.1 -3.046,4.1 l 2.106,8.198 c 0,0 0.497,-7.826 2.366,-8.198 1.869,-0.373 2.218,1.118 2.172,4.099 -0.048,2.981 -0.805,3.727 -0.52,9.317 0.284,5.59 -2.017,9.689 -3.182,12.671 -1.165,2.981 -3.489,8.571 -3.891,10.434 -0.403,1.864 11.941,46.212 11.941,46.212 0,0 -8.117,-5.216 -28.388,4.1"
             style="fill:#ffffff;fill-opacity:1;fill-rule:nonzero;stroke:none"
             id="path358" /></g><g
           id="g360"
           transform="translate(138.2739,174.1582)"><path
             d="m 0,0 0.888,-56.274 c 0,0 -4.456,-24.596 -2.191,-26.46 2.266,-1.864 9.825,-8.572 11.345,-10.435 1.521,-1.863 4.514,-2.608 6.756,-2.981 2.242,-0.372 8.548,1.491 7.377,4.844 -1.171,3.355 -2.597,-0.745 -3.733,0.373 -1.135,1.119 -3.046,4.1 -3.046,4.1 l 2.106,8.198 c 0,0 0.497,-7.826 2.366,-8.198 1.869,-0.373 2.218,1.118 2.172,4.099 -0.048,2.981 -0.805,3.727 -0.52,9.317 0.284,5.59 -2.017,9.689 -3.182,12.671 -1.165,2.981 -3.489,8.571 -3.891,10.434 -0.403,1.864 11.941,46.212 11.941,46.212 0,0 -8.117,-5.216 -28.388,4.1 z"
             style="fill:none;stroke:#1a2e35;stroke-width:1;stroke-linecap:butt;stroke-linejoin:miter;stroke-miterlimit:10;stroke-dasharray:none;stroke-opacity:1"
             id="path362" /></g><g
           id="g364"
           transform="translate(163.082,302.3584)"><path
             d="m 0,0 c 0,0 -10.672,-8.571 -12.33,-21.615 -1.657,-13.044 -2.108,-31.677 -3.504,-37.64 -1.397,-5.963 -6.991,-52.92 -6.991,-52.92 0,0 5.3,-5.218 9.807,-7.454 4.507,-2.235 14.54,-0.372 16.025,0 1.485,0.373 4.443,1.863 4.443,1.863 0,0 6.131,36.523 6.404,42.859 0.272,6.335 2.681,19.006 2.681,19.006 0,0 -0.274,40.994 -16.535,55.901"
             style="fill:#5ae4a7;fill-opacity:1;fill-rule:nonzero;stroke:none"
             id="path366" /></g><g
           id="g368"
           transform="translate(163.082,302.3584)"><path
             d="m 0,0 c 0,0 -10.672,-8.571 -12.33,-21.615 -1.657,-13.044 -2.108,-31.677 -3.504,-37.64 -1.397,-5.963 -6.991,-52.92 -6.991,-52.92 0,0 5.3,-5.218 9.807,-7.454 4.507,-2.235 14.54,-0.372 16.025,0 1.485,0.373 4.443,1.863 4.443,1.863 0,0 6.131,36.523 6.404,42.859 0.272,6.335 2.681,19.006 2.681,19.006 0,0 -0.274,40.994 -16.535,55.901 z"
             style="fill:none;stroke:#1a2e35;stroke-width:1;stroke-linecap:butt;stroke-linejoin:miter;stroke-miterlimit:10;stroke-dasharray:none;stroke-opacity:1"
             id="path370" /></g><g
           id="g372"
           transform="translate(170.0801,230.8096)"><path
             d="M 0,0 C -0.824,-1.436 -1.526,-2.71 -2.009,-3.676"
             style="fill:none;stroke:#1a2e35;stroke-width:1;stroke-linecap:butt;stroke-linejoin:miter;stroke-miterlimit:10;stroke-dasharray:none;stroke-opacity:1"
             id="path374" /></g><g
           id="g376"
           transform="translate(179.6172,246.457)"><path
             d="M 0,0 C 0,0 -3.932,-6.208 -7.34,-11.906"
             style="fill:none;stroke:#1a2e35;stroke-width:1;stroke-linecap:butt;stroke-linejoin:miter;stroke-miterlimit:10;stroke-dasharray:none;stroke-opacity:1"
             id="path378" /></g><g
           id="g380"
           transform="translate(170.6675,238.2627)"><path
             d="M 0,0 -7.791,-12.984"
             style="fill:none;stroke:#1a2e35;stroke-width:1;stroke-linecap:butt;stroke-linejoin:miter;stroke-miterlimit:10;stroke-dasharray:none;stroke-opacity:1"
             id="path382" /></g><g
           id="g384"
           transform="translate(139.021,197.6367)"><path
             d="m 0,0 c 0,0 7.56,-6.708 14.676,-8.944 7.116,-2.237 13.073,-1.864 15.67,-1.119 2.597,0.747 3.697,1.864 4.117,-1.118 0.419,-2.98 -2.025,-13.416 -1.977,-16.397 0.047,-2.982 -1.048,-4.472 -6.993,-5.59 -5.945,-1.118 -18.651,1.118 -22.419,3.727 -3.768,2.608 -6.436,6.336 -6.116,9.689 0.32,3.355 1.693,10.808 2.024,13.417 C -0.687,-3.727 -1.479,-0.745 0,0"
             style="fill:#ffffff;fill-opacity:1;fill-rule:nonzero;stroke:none"
             id="path386" /></g><g
           id="g388"
           transform="translate(139.021,197.6367)"><path
             d="m 0,0 c 0,0 7.56,-6.708 14.676,-8.944 7.116,-2.237 13.073,-1.864 15.67,-1.119 2.597,0.747 3.697,1.864 4.117,-1.118 0.419,-2.98 -2.025,-13.416 -1.977,-16.397 0.047,-2.982 -1.048,-4.472 -6.993,-5.59 -5.945,-1.118 -18.651,1.118 -22.419,3.727 -3.768,2.608 -6.436,6.336 -6.116,9.689 0.32,3.355 1.693,10.808 2.024,13.417 C -0.687,-3.727 -1.479,-0.745 0,0 Z"
             style="fill:none;stroke:#1a2e35;stroke-width:1;stroke-linecap:butt;stroke-linejoin:miter;stroke-miterlimit:10;stroke-dasharray:none;stroke-opacity:1"
             id="path390" /></g><g
           id="g392"
           transform="translate(218.4014,252.2661)"><path
             d="m 0,0 c -0.09,0.087 -0.187,0.162 -0.288,0.226 -2.647,1.65 -16.173,-1.851 -19.6,-1.851 -11.129,0 -15.73,3.035 -16.172,-1.012 -0.441,-4.047 -1.39,-8.095 -0.346,-10.118 1.044,-2.024 4.553,0 7.596,-0.506 3.044,-0.506 9.17,-4.047 11.7,-4.047 2.529,0 9.042,4.047 10.56,4.047 1.518,0 5.083,-1.518 6.077,0.01 C 1.095,-10.784 2.196,-2.104 0,0"
             style="fill:#ffffff;fill-opacity:1;fill-rule:nonzero;stroke:none"
             id="path394" /></g><g
           id="g396"
           transform="translate(218.4014,252.2661)"><path
             d="m 0,0 c -0.09,0.087 -0.187,0.162 -0.288,0.226 -2.647,1.65 -16.173,-1.851 -19.6,-1.851 -11.129,0 -15.73,3.035 -16.172,-1.012 -0.441,-4.047 -1.39,-8.095 -0.346,-10.118 1.044,-2.024 4.553,0 7.596,-0.506 3.044,-0.506 9.17,-4.047 11.7,-4.047 2.529,0 9.042,4.047 10.56,4.047 1.518,0 5.083,-1.518 6.077,0.01 C 1.095,-10.784 2.196,-2.104 0,0 Z"
             style="fill:none;stroke:#1a2e35;stroke-width:1;stroke-linecap:butt;stroke-linejoin:miter;stroke-miterlimit:10;stroke-dasharray:none;stroke-opacity:1"
             id="path398" /></g><g
           id="g400"
           transform="translate(202.5933,240.2461)"><path
             d="m 0,0 c 0.019,-1.219 -0.953,-2.206 -2.171,-2.206 -1.218,0 -2.222,0.987 -2.241,2.206 -0.019,1.218 0.953,2.205 2.171,2.205 C -1.022,2.205 -0.02,1.218 0,0 Z"
             style="fill:none;stroke:#1a2e35;stroke-width:1;stroke-linecap:round;stroke-linejoin:miter;stroke-miterlimit:10;stroke-dasharray:none;stroke-opacity:1"
             id="path402" /></g><g
           id="g404"
           transform="translate(296.3086,252.2661)"><path
             d="m 0,0 c -0.09,0.087 -0.187,0.162 -0.288,0.226 -2.647,1.65 -16.173,-1.851 -19.6,-1.851 -11.129,0 -15.729,3.035 -16.172,-1.012 -0.441,-4.047 -1.389,-8.095 -0.345,-10.118 1.044,-2.024 4.552,0 7.596,-0.506 3.043,-0.506 9.17,-4.047 11.7,-4.047 2.529,0 9.042,4.047 10.559,4.047 1.518,0 5.083,-1.518 6.077,0.01 C 1.096,-10.784 2.197,-2.104 0,0"
             style="fill:#ffffff;fill-opacity:1;fill-rule:nonzero;stroke:none"
             id="path406" /></g><g
           id="g408"
           transform="translate(296.3086,252.2661)"><path
             d="m 0,0 c -0.09,0.087 -0.187,0.162 -0.288,0.226 -2.647,1.65 -16.173,-1.851 -19.6,-1.851 -11.129,0 -15.729,3.035 -16.172,-1.012 -0.441,-4.047 -1.389,-8.095 -0.345,-10.118 1.044,-2.024 4.552,0 7.596,-0.506 3.043,-0.506 9.17,-4.047 11.7,-4.047 2.529,0 9.042,4.047 10.559,4.047 1.518,0 5.083,-1.518 6.077,0.01 C 1.096,-10.784 2.197,-2.104 0,0 Z"
             style="fill:none;stroke:#1a2e35;stroke-width:1;stroke-linecap:butt;stroke-linejoin:miter;stroke-miterlimit:10;stroke-dasharray:none;stroke-opacity:1"
             id="path410" /></g><g
           id="g412"
           transform="translate(280.9033,239.6943)"><path
             d="m 0,0 c 0.02,-1.218 -0.953,-2.205 -2.171,-2.205 -1.218,0 -2.222,0.987 -2.24,2.205 -0.02,1.219 0.952,2.206 2.171,2.206 C -1.022,2.206 -0.02,1.219 0,0 Z"
             style="fill:none;stroke:#1a2e35;stroke-width:1;stroke-linecap:round;stroke-linejoin:miter;stroke-miterlimit:10;stroke-dasharray:none;stroke-opacity:1"
             id="path414" /></g></g></g><g
       id="g416"><g
         id="g418"
         clip-path="url(#clipPath422)"><g
           id="g424"
           transform="translate(166.3901,413.4355)"><path
             d="m 0,0 h -77.739 c -3.24,0 -5.867,-2.626 -5.867,-5.867 v -24.935 c 0,-3.24 2.627,-5.867 5.867,-5.867 H -13.56 L 2.912,-48.87 -2.75,-36.669 H 0 c 3.24,0 5.867,2.627 5.867,5.867 V -5.867 C 5.867,-2.626 3.24,0 0,0"
             style="fill:#1a2e35;fill-opacity:1;fill-rule:nonzero;stroke:none"
             id="path426" /></g><g
           id="g428"
           transform="translate(166.3901,413.4355)"><path
             d="m 0,0 h -77.739 c -3.24,0 -5.867,-2.626 -5.867,-5.867 v -24.935 c 0,-3.24 2.627,-5.867 5.867,-5.867 H -13.56 L 2.912,-48.87 -2.75,-36.669 H 0 c 3.24,0 5.867,2.627 5.867,5.867 V -5.867 C 5.867,-2.626 3.24,0 0,0 Z"
             style="fill:none;stroke:#1a2e35;stroke-width:1;stroke-linecap:butt;stroke-linejoin:miter;stroke-miterlimit:10;stroke-dasharray:none;stroke-opacity:1"
             id="path430" /></g><g
           id="g432"
           transform="translate(167.3457,414.9248)"><path
             d="m 0,0 h -77.739 c -3.24,0 -5.867,-2.627 -5.867,-5.867 v -24.936 c 0,-3.24 2.627,-5.866 5.867,-5.866 h 64.18 l 15.515,-13.69 -4.706,13.69 H 0 c 3.241,0 5.867,2.626 5.867,5.866 V -5.867 C 5.867,-2.627 3.241,0 0,0"
             style="fill:#ffffff;fill-opacity:1;fill-rule:nonzero;stroke:none"
             id="path434" /></g><g
           id="g436"
           transform="translate(167.3457,414.9248)"><path
             d="m 0,0 h -77.739 c -3.24,0 -5.867,-2.627 -5.867,-5.867 v -24.936 c 0,-3.24 2.627,-5.866 5.867,-5.866 h 64.18 l 15.515,-13.69 -4.706,13.69 H 0 c 3.241,0 5.867,2.626 5.867,5.866 V -5.867 C 5.867,-2.627 3.241,0 0,0 Z"
             style="fill:none;stroke:#1a2e35;stroke-width:1;stroke-linecap:butt;stroke-linejoin:miter;stroke-miterlimit:10;stroke-dasharray:none;stroke-opacity:1"
             id="path438" /></g><path
           d="m 96.812,388.735 h -1.854 v 16.641 h 1.854 z"
           style="fill:#1a2e35;fill-opacity:1;fill-rule:nonzero;stroke:none"
           id="path440" /><g
           id="g442"
           transform="translate(99.6885,400.978)"><path
             d="m 0,0 h -0.761 l 0.594,2.092 H -0.856 V 4.398 H 0.927 V 2.282 Z"
             style="fill:#1a2e35;fill-opacity:1;fill-rule:nonzero;stroke:none"
             id="path444" /></g><g
           id="g446"
           transform="translate(108.6509,388.7588)"><path
             d="M 0,0 H -1.783 L -4.541,13.242 V -0.024 h -1.616 v 16.641 h 2.591 L -0.832,3.328 1.807,16.617 H 4.398 V -0.024 H 2.639 V 13.36 Z"
             style="fill:#1a2e35;fill-opacity:1;fill-rule:nonzero;stroke:none"
             id="path448" /></g><g
           id="g450"
           transform="translate(125.8389,401.3823)"><path
             d="m 0,0 v -0.452 h -1.759 v 0.547 c 0,1.498 -0.571,2.377 -1.902,2.377 -1.332,0 -1.902,-0.879 -1.902,-2.353 0,-3.733 5.586,-4.089 5.586,-8.772 0,-2.52 -1.212,-4.161 -3.755,-4.161 -2.544,0 -3.733,1.641 -3.733,4.161 v 0.95 h 1.736 v -1.046 c 0,-1.498 0.618,-2.377 1.949,-2.377 1.331,0 1.949,0.879 1.949,2.377 0,3.709 -5.563,4.065 -5.563,8.749 0,2.567 1.189,4.16 3.686,4.16 C -1.189,4.16 0,2.52 0,0"
             style="fill:#1a2e35;fill-opacity:1;fill-rule:nonzero;stroke:none"
             id="path452" /></g><g
           id="g454"
           transform="translate(129.1665,392.6572)"><path
             d="m 0,0 c 0,-1.521 0.642,-2.401 1.973,-2.401 1.356,0 1.973,0.88 1.973,2.401 v 8.796 c 0,1.498 -0.617,2.401 -1.973,2.401 C 0.642,11.197 0,10.294 0,8.796 Z m -1.831,8.701 c 0,2.544 1.261,4.184 3.804,4.184 2.568,0 3.828,-1.64 3.828,-4.184 V 0.095 c 0,-2.52 -1.26,-4.184 -3.828,-4.184 -2.543,0 -3.804,1.664 -3.804,4.184 z"
             style="fill:#1a2e35;fill-opacity:1;fill-rule:nonzero;stroke:none"
             id="path456" /></g><g
           id="g458"
           transform="translate(139.9595,397.5308)"><path
             d="m 0,0 c 1.474,0 2.354,0.476 2.354,2.282 v 1.593 c 0,1.498 -0.547,2.282 -1.926,2.282 h -1.807 l 0,-6.157 z m 0.476,7.845 c 2.614,0 3.708,-1.331 3.708,-3.803 V 2.687 c 0,-1.831 -0.642,-2.972 -2.068,-3.424 1.521,-0.451 2.092,-1.688 2.092,-3.471 v -2.591 c 0,-0.737 0.023,-1.427 0.333,-1.997 H 2.663 C 2.449,-8.32 2.354,-7.893 2.354,-6.775 v 2.615 c 0,1.878 -0.88,2.473 -2.425,2.473 H -1.379 V -8.796 H -3.233 V 7.845 Z"
             style="fill:#1a2e35;fill-opacity:1;fill-rule:nonzero;stroke:none"
             id="path460" /></g><g
           id="g462"
           transform="translate(149.3262,397.5308)"><path
             d="m 0,0 c 1.474,0 2.354,0.476 2.354,2.282 v 1.593 c 0,1.498 -0.547,2.282 -1.926,2.282 h -1.807 l 0,-6.157 z m 0.476,7.845 c 2.614,0 3.708,-1.331 3.708,-3.803 V 2.687 c 0,-1.831 -0.642,-2.972 -2.068,-3.424 1.521,-0.451 2.092,-1.688 2.092,-3.471 v -2.591 c 0,-0.737 0.023,-1.427 0.333,-1.997 H 2.663 C 2.449,-8.32 2.354,-7.893 2.354,-6.775 v 2.615 c 0,1.878 -0.88,2.473 -2.425,2.473 H -1.379 V -8.796 H -3.233 V 7.845 Z"
             style="fill:#1a2e35;fill-opacity:1;fill-rule:nonzero;stroke:none"
             id="path464" /></g><g
           id="g466"
           transform="translate(158.1704,394.7021)"><path
             d="m 0,0 -3.519,10.674 h 1.926 l 2.592,-8.178 2.614,8.178 h 1.76 L 1.831,0 V -5.967 H 0 Z"
             style="fill:#1a2e35;fill-opacity:1;fill-rule:nonzero;stroke:none"
             id="path468" /></g></g></g></g></svg>
